<mxfile host="app.diagrams.net" modified="2024-07-28T14:54:31.768Z" agent="Mozilla/5.0 (Windows NT 10.0; Win64; x64; rv:128.0) Gecko/20100101 Firefox/128.0" version="24.7.1" etag="D3gB2bz7YbSOAlDbHDhU" type="github">
  <diagram name="Page-1" id="zgG0ZaOVg17iv4XqMlqB">
    <mxGraphModel>
      <root>
        <mxCell id="0" />
        <mxCell id="1" parent="0" />
      </root>
    </mxGraphModel>
  </diagram>
</mxfile>
